<svg xmlns="http://www.w3.org/2000/svg" viewBox="0 0 64 64" role="img" aria-label="InterviewAI">
  <rect width="64" height="64" rx="14" fill="#0d1117"/>
  <path d="M14 18c0-3.3 2.7-6 6-6h24c3.3 0 6 2.7 6 6v19c0 3.3-2.7 6-6 6H30l-9.3 8.2c-1.3 1.1-3.3.2-3.3-1.5V43H20c-3.3 0-6-2.7-6-6V18Z" fill="#161b22" stroke="#2a3348" stroke-width="3"/>
  <path d="M24 39 31.2 21h4L43 39h-4.8l-1.4-3.8h-7.4L28 39h-4Zm6.8-7.7h4.6l-2.3-6.4-2.3 6.4Z" fill="#ff2d78"/>
  <path d="M47 13.5 49.1 19H55l-4.7 3.4 1.8 5.6-5.1-3.5-4.8 3.5 1.7-5.6L39.2 19h5.9L47 13.5Z" fill="#ff6b9d"/>
  <path d="M19 19.5h7.5M19 25h5" stroke="#e6edf3" stroke-width="3" stroke-linecap="round"/>
</svg>
